
<svg width="800" height="800" xmlns="http://www.w3.org/2000/svg">
<path id="orbit" d="M 400,400
                     a 200,200 0 1,0 400,0
                     a 200,200 0 1,0 -400,0" fill="transparent" />
<g id="spaceship">
    <g id="SVGRepo_iconCarrier">
        <path style="fill:#5A6B96;" d="M198.769,313.23c60.405,60.405,86.263,136.311,67.571,185.796 c13.342-7.122,25.789-16.232,36.925-27.368c66.272-66.272,61.14-178.854-11.465-251.459s-185.186-77.736-251.459-11.464 c-11.135,11.135-20.245,23.583-27.368,36.925C62.458,226.967,138.364,252.826,198.769,313.23z"/>
        <path style="fill:#EFEFEF;" d="M491.531,169.483c-4.442,16.43-10.787,30.384-19.759,39.356 c-44.014,53.753-114.435,112.295-182.586,152.18L150.972,222.804c39.896-68.151,98.438-138.571,152.191-182.586 c8.961-8.961,22.926-15.316,39.345-19.759L491.531,169.483z"/>
        <path style="fill:#FF7D46;" d="M491.531,169.483L342.508,20.459c60.92-16.495,155.79-6.756,155.79-6.756 S508.037,108.564,491.531,169.483z"/>
        <circle style="fill:#45CCFF;" cx="320.271" cy="191.73" r="48.641"/>
        <path style="fill:#FF7D46;" d="M289.187,361.019c-13.457,7.891-26.817,15.035-39.864,21.272 c-39.874-39.864-79.749-79.738-119.623-119.612c6.248-13.057,13.392-26.417,21.272-39.874L289.187,361.019z"/>
        <path style="fill:#5A6B96;" d="M209.64,343.634c-36.443,36.443-86.622,45.349-86.622,45.349s8.907-50.179,45.349-86.622 s86.622-45.349,86.622-45.349S246.083,307.19,209.64,343.634z"/>
        <g>
            <path style="fill:#231F20;" d="M394.713,133.812c-4.221,4.221-4.221,11.065,0,15.286l1.081,1.081 c2.111,2.111,4.877,3.166,7.643,3.166c2.766,0,5.533-1.055,7.643-3.166c4.221-4.221,4.221-11.065,0-15.286l-1.081-1.081 C405.778,129.59,398.934,129.59,394.713,133.812z"/>
            <path style="fill:#231F20;" d="M320.269,132.282c-15.88,0-30.809,6.184-42.037,17.412c-23.179,23.179-23.179,60.895,0,84.074 c11.228,11.228,26.158,17.412,42.037,17.412c15.88,0,30.809-6.184,42.037-17.412c11.229-11.228,17.412-26.158,17.412-42.037 s-6.184-30.809-17.412-42.037C351.078,138.466,336.149,132.282,320.269,132.282z M347.02,218.483L347.02,218.483 c-7.146,7.146-16.646,11.08-26.751,11.08s-19.605-3.936-26.751-11.08c-14.75-14.75-14.75-38.751,0-53.501 c7.145-7.146,16.646-11.08,26.751-11.08s19.605,3.934,26.751,11.08c7.145,7.146,11.08,16.646,11.08,26.751 C358.101,201.837,354.165,211.337,347.02,218.483z"/>
            <path style="fill:#231F20;" d="M10.809,420.282c2.766,0,5.533-1.055,7.643-3.166l74.471-74.471c4.221-4.221,4.221-11.065,0-15.286 s-11.065-4.221-15.287,0L3.166,401.83c-4.221,4.221-4.221,11.065,0,15.286C5.277,419.226,8.043,420.282,10.809,420.282z"/>
            <path style="fill:#231F20;" d="M169.355,419.076l-74.472,74.472c-4.221,4.221-4.221,11.065,0,15.286 c2.111,2.111,4.877,3.166,7.643,3.166s5.533-1.056,7.643-3.166l74.472-74.472c4.221-4.221,4.221-11.065,0-15.286 C180.421,414.855,173.577,414.855,169.355,419.076z"/>
            <path style="fill:#231F20;" d="M95.031,416.969c-4.221-4.221-11.065-4.221-15.287,0L4.248,492.465 c-4.221,4.221-4.221,11.065,0,15.286c2.111,2.111,4.877,3.166,7.643,3.166s5.533-1.055,7.643-3.166l75.496-75.496 C99.251,428.035,99.251,421.19,95.031,416.969z"/>
        </g>
    </g>    <animateMotion dur="5s" repeatCount="indefinite">
        <mpath href="#orbit"/>
    </animateMotion>
</g>
</svg>
